<svg width="1200" height="780" viewBox="0 0 1200 780" fill="none" xmlns="http://www.w3.org/2000/svg">
  <defs>
    <linearGradient id="bg" x1="124" y1="50" x2="1086" y2="730" gradientUnits="userSpaceOnUse">
      <stop stop-color="#071022"/>
      <stop offset="1" stop-color="#0A1738"/>
    </linearGradient>
  </defs>
  <rect width="1200" height="780" rx="28" fill="url(#bg)"/>
  <rect x="52" y="44" width="1096" height="692" rx="24" fill="#040B18" stroke="#213966"/>
  <text x="86" y="92" fill="#F6F8FF" font-family="Arial, Helvetica, sans-serif" font-size="28" font-weight="700">Decision + Report Surface</text>
  <text x="760" y="92" fill="#94A9D6" font-family="ui-monospace, SFMono-Regular, Menlo, monospace" font-size="18">HUMAN REVIEW + PDF ARTIFACT</text>

  <rect x="86" y="130" width="1028" height="124" rx="20" fill="#0D2147" stroke="#315693"/>
  <text x="120" y="180" fill="#CFE7FF" font-family="ui-monospace, SFMono-Regular, Menlo, monospace" font-size="28">RECOMMENDED ACTION: FURTHER_INVESTIGATION</text>
  <text x="120" y="220" fill="#B7C6EA" font-family="Arial, Helvetica, sans-serif" font-size="22">Fail-closed behavior prevents false confidence when evidence is incomplete or inconsistent.</text>

  <rect x="86" y="282" width="490" height="392" rx="20" fill="#081226" stroke="#203B69"/>
  <text x="118" y="324" fill="#8AA6DE" font-family="ui-monospace, SFMono-Regular, Menlo, monospace" font-size="18">REVIEW ACTIONS</text>
  <rect x="118" y="350" width="186" height="62" rx="14" fill="#153D61" stroke="#2E78A7"/>
  <text x="159" y="389" fill="#F3F7FF" font-family="ui-monospace, SFMono-Regular, Menlo, monospace" font-size="20">APPROVE</text>
  <rect x="322" y="350" width="186" height="62" rx="14" fill="#3C2531" stroke="#8A4258"/>
  <text x="377" y="389" fill="#F3F7FF" font-family="ui-monospace, SFMono-Regular, Menlo, monospace" font-size="20">BLOCK</text>
  <rect x="118" y="430" width="390" height="96" rx="14" fill="#0A132B" stroke="#23385F"/>
  <text x="144" y="468" fill="#8AA6DE" font-family="ui-monospace, SFMono-Regular, Menlo, monospace" font-size="18">OVERRIDE NOTES</text>
  <text x="144" y="502" fill="#BAC8E9" font-family="Arial, Helvetica, sans-serif" font-size="17">Operational context has changed; keep this asset under monitored operations.</text>
  <rect x="118" y="548" width="390" height="96" rx="14" fill="#0A132B" stroke="#23385F"/>
  <text x="144" y="586" fill="#8AA6DE" font-family="ui-monospace, SFMono-Regular, Menlo, monospace" font-size="18">WHY THIS SCREEN MATTERS</text>
  <text x="144" y="620" fill="#BAC8E9" font-family="Arial, Helvetica, sans-serif" font-size="17">The platform recommends. The operator decides.</text>

  <rect x="608" y="282" width="506" height="392" rx="20" fill="#081226" stroke="#203B69"/>
  <text x="640" y="324" fill="#8AA6DE" font-family="ui-monospace, SFMono-Regular, Menlo, monospace" font-size="18">REPORT ARTIFACT</text>
  <rect x="640" y="350" width="442" height="220" rx="16" fill="#FAFCFF"/>
  <rect x="674" y="386" width="166" height="18" rx="9" fill="#D9E5FB"/>
  <rect x="674" y="422" width="376" height="10" rx="5" fill="#D9E5FB"/>
  <rect x="674" y="448" width="376" height="10" rx="5" fill="#D9E5FB"/>
  <rect x="674" y="474" width="286" height="10" rx="5" fill="#D9E5FB"/>
  <rect x="674" y="512" width="140" height="18" rx="9" fill="#D9E5FB"/>
  <rect x="836" y="512" width="214" height="18" rx="9" fill="#D9E5FB"/>
  <rect x="640" y="594" width="208" height="56" rx="14" fill="#173C63" stroke="#2E6AA2"/>
  <text x="692" y="628" fill="#F3F7FF" font-family="ui-monospace, SFMono-Regular, Menlo, monospace" font-size="20">EXPORT PDF</text>
  <text x="876" y="627" fill="#BAC8E9" font-family="Arial, Helvetica, sans-serif" font-size="18">Portable, reviewable, auditable output.</text>
</svg>
