<svg width="1200" height="780" viewBox="0 0 1200 780" fill="none" xmlns="http://www.w3.org/2000/svg">
  <defs>
    <linearGradient id="bg" x1="120" y1="44" x2="1086" y2="734" gradientUnits="userSpaceOnUse">
      <stop stop-color="#071022"/>
      <stop offset="1" stop-color="#0A1738"/>
    </linearGradient>
  </defs>
  <rect width="1200" height="780" rx="28" fill="url(#bg)"/>
  <rect x="48" y="42" width="1104" height="696" rx="24" fill="#040B18" stroke="#213966"/>
  <text x="82" y="90" fill="#F6F8FF" font-family="Arial, Helvetica, sans-serif" font-size="28" font-weight="700">Portfolio Surface</text>
  <text x="854" y="90" fill="#95A9D7" font-family="ui-monospace, SFMono-Regular, Menlo, monospace" font-size="18">FLEET TRIAGE + OPEN ATTENTION QUEUE</text>

  <rect x="82" y="124" width="244" height="100" rx="16" fill="#0D2147" stroke="#315693"/>
  <text x="110" y="166" fill="#BFE0FF" font-family="ui-monospace, SFMono-Regular, Menlo, monospace" font-size="20">TOTAL ASSETS</text>
  <text x="110" y="204" fill="#F7FAFF" font-family="Arial, Helvetica, sans-serif" font-size="34" font-weight="700">6,000+</text>
  <rect x="344" y="124" width="244" height="100" rx="16" fill="#0D2147" stroke="#315693"/>
  <text x="372" y="166" fill="#BFE0FF" font-family="ui-monospace, SFMono-Regular, Menlo, monospace" font-size="20">OPEN ATTENTION</text>
  <text x="372" y="204" fill="#F7FAFF" font-family="Arial, Helvetica, sans-serif" font-size="34" font-weight="700">18</text>
  <rect x="606" y="124" width="244" height="100" rx="16" fill="#0D2147" stroke="#315693"/>
  <text x="634" y="166" fill="#BFE0FF" font-family="ui-monospace, SFMono-Regular, Menlo, monospace" font-size="20">URGENT ASSETS</text>
  <text x="634" y="204" fill="#F7FAFF" font-family="Arial, Helvetica, sans-serif" font-size="34" font-weight="700">4</text>
  <rect x="868" y="124" width="244" height="100" rx="16" fill="#0D2147" stroke="#315693"/>
  <text x="896" y="166" fill="#BFE0FF" font-family="ui-monospace, SFMono-Regular, Menlo, monospace" font-size="20">APPROVED</text>
  <text x="896" y="204" fill="#F7FAFF" font-family="Arial, Helvetica, sans-serif" font-size="34" font-weight="700">57</text>

  <rect x="82" y="252" width="296" height="432" rx="20" fill="#081226" stroke="#203B69"/>
  <text x="110" y="292" fill="#8AA6DE" font-family="ui-monospace, SFMono-Regular, Menlo, monospace" font-size="18">FILTERS + HEATMAP</text>
  <rect x="110" y="320" width="240" height="44" rx="12" fill="#0A1835" stroke="#284A82"/>
  <rect x="110" y="378" width="240" height="44" rx="12" fill="#0A1835" stroke="#284A82"/>
  <rect x="110" y="436" width="240" height="44" rx="12" fill="#0A1835" stroke="#284A82"/>
  <rect x="110" y="512" width="240" height="136" rx="14" fill="#0A132B" stroke="#23385F"/>
  <rect x="132" y="534" width="56" height="30" rx="8" fill="#1E7DA5"/>
  <rect x="198" y="534" width="56" height="30" rx="8" fill="#2B9B76"/>
  <rect x="264" y="534" width="56" height="30" rx="8" fill="#C48728"/>
  <rect x="132" y="574" width="56" height="30" rx="8" fill="#A03E4E"/>
  <rect x="198" y="574" width="56" height="30" rx="8" fill="#C48728"/>
  <rect x="264" y="574" width="56" height="30" rx="8" fill="#1E7DA5"/>

  <rect x="400" y="252" width="414" height="432" rx="20" fill="#081226" stroke="#203B69"/>
  <text x="430" y="292" fill="#8AA6DE" font-family="ui-monospace, SFMono-Regular, Menlo, monospace" font-size="18">ATTENTION QUEUE</text>
  <rect x="430" y="320" width="354" height="92" rx="14" fill="#0A1835" stroke="#284A82"/>
  <text x="454" y="358" fill="#F7FAFF" font-family="ui-monospace, SFMono-Regular, Menlo, monospace" font-size="20">#25544  ISS   ELEVATED</text>
  <text x="454" y="386" fill="#B8C8E9" font-family="Arial, Helvetica, sans-serif" font-size="16">Decision state: pending_human_review</text>
  <rect x="430" y="430" width="354" height="92" rx="14" fill="#0A1835" stroke="#284A82"/>
  <text x="454" y="468" fill="#F7FAFF" font-family="ui-monospace, SFMono-Regular, Menlo, monospace" font-size="20">#39634  SENTINEL-1A   HIGH</text>
  <text x="454" y="496" fill="#B8C8E9" font-family="Arial, Helvetica, sans-serif" font-size="16">Recommended action: further investigation</text>
  <rect x="430" y="540" width="354" height="92" rx="14" fill="#0A1835" stroke="#284A82"/>
  <text x="454" y="578" fill="#F7FAFF" font-family="ui-monospace, SFMono-Regular, Menlo, monospace" font-size="20">#20580  HUBBLE   LOW</text>
  <text x="454" y="606" fill="#B8C8E9" font-family="Arial, Helvetica, sans-serif" font-size="16">Approved by analyst-e2e-user</text>

  <rect x="836" y="252" width="276" height="432" rx="20" fill="#081226" stroke="#203B69"/>
  <text x="864" y="292" fill="#8AA6DE" font-family="ui-monospace, SFMono-Regular, Menlo, monospace" font-size="18">ASSET DETAIL</text>
  <rect x="864" y="320" width="220" height="44" rx="12" fill="#0A1835" stroke="#284A82"/>
  <rect x="864" y="378" width="220" height="44" rx="12" fill="#0A1835" stroke="#284A82"/>
  <rect x="864" y="436" width="220" height="44" rx="12" fill="#0A1835" stroke="#284A82"/>
  <rect x="864" y="508" width="220" height="140" rx="14" fill="#0A132B" stroke="#23385F"/>
  <text x="888" y="550" fill="#8AA6DE" font-family="ui-monospace, SFMono-Regular, Menlo, monospace" font-size="18">WHY THIS SCREEN MATTERS</text>
  <text x="888" y="586" fill="#BAC8E9" font-family="Arial, Helvetica, sans-serif" font-size="17">The close of the demo</text>
  <text x="888" y="612" fill="#BAC8E9" font-family="Arial, Helvetica, sans-serif" font-size="17">should show operational</text>
  <text x="888" y="638" fill="#BAC8E9" font-family="Arial, Helvetica, sans-serif" font-size="17">leverage across a fleet.</text>
</svg>
